<svg xmlns="http://www.w3.org/2000/svg" xmlns:xlink="http://www.w3.org/1999/xlink" viewBox="0 0 1100 1100"><defs><style>.cls-1,.cls-100,.cls-102{fill:none;}.cls-2{fill:#fee15c;}.cls-3{fill:#fff;}.cls-4{opacity:0.18;}.cls-5{clip-path:url(#clip-path);}.cls-6{clip-path:url(#clip-path-2);}.cls-7{clip-path:url(#clip-path-3);}.cls-8{clip-path:url(#clip-path-4);}.cls-9{clip-path:url(#clip-path-5);}.cls-10{clip-path:url(#clip-path-6);}.cls-11{clip-path:url(#clip-path-7);}.cls-12{clip-path:url(#clip-path-8);}.cls-13{clip-path:url(#clip-path-9);}.cls-14{opacity:0.57;}.cls-15{clip-path:url(#clip-path-10);}.cls-16{clip-path:url(#clip-path-11);}.cls-17{clip-path:url(#clip-path-12);}.cls-18{clip-path:url(#clip-path-13);}.cls-19{clip-path:url(#clip-path-14);}.cls-20{clip-path:url(#clip-path-15);}.cls-21{clip-path:url(#clip-path-16);}.cls-22{clip-path:url(#clip-path-17);}.cls-23{clip-path:url(#clip-path-18);}.cls-24{clip-path:url(#clip-path-19);}.cls-25{clip-path:url(#clip-path-20);}.cls-26{clip-path:url(#clip-path-21);}.cls-27{clip-path:url(#clip-path-22);}.cls-28{clip-path:url(#clip-path-23);}.cls-29{clip-path:url(#clip-path-24);}.cls-30{clip-path:url(#clip-path-25);}.cls-31{clip-path:url(#clip-path-26);}.cls-32{clip-path:url(#clip-path-27);}.cls-33{clip-path:url(#clip-path-28);}.cls-34{clip-path:url(#clip-path-29);}.cls-35{clip-path:url(#clip-path-30);}.cls-36{clip-path:url(#clip-path-31);}.cls-37{fill:#8b76e5;}.cls-38{clip-path:url(#clip-path-32);}.cls-39{fill:#e2555c;}.cls-40{clip-path:url(#clip-path-34);}.cls-41{fill:#ff4f4f;}.cls-42{clip-path:url(#clip-path-36);}.cls-43{fill:#6b55c9;}.cls-44{clip-path:url(#clip-path-38);}.cls-45{clip-path:url(#clip-path-40);}.cls-46{fill:#f8f6fc;}.cls-47{clip-path:url(#clip-path-42);}.cls-48{fill:#786d90;}.cls-49{clip-path:url(#clip-path-44);}.cls-50{fill:#e9e2f4;}.cls-51{clip-path:url(#clip-path-46);}.cls-52{clip-path:url(#clip-path-48);}.cls-53{clip-path:url(#clip-path-50);}.cls-54{clip-path:url(#clip-path-52);}.cls-55{clip-path:url(#clip-path-54);}.cls-56{clip-path:url(#clip-path-55);}.cls-57{clip-path:url(#clip-path-56);}.cls-58{clip-path:url(#clip-path-58);}.cls-59{clip-path:url(#clip-path-60);}.cls-60{clip-path:url(#clip-path-62);}.cls-61{clip-path:url(#clip-path-63);}.cls-62{clip-path:url(#clip-path-64);}.cls-63{clip-path:url(#clip-path-65);}.cls-64{clip-path:url(#clip-path-66);}.cls-65{clip-path:url(#clip-path-68);}.cls-66{clip-path:url(#clip-path-70);}.cls-67{clip-path:url(#clip-path-72);}.cls-68{clip-path:url(#clip-path-74);}.cls-69{clip-path:url(#clip-path-76);}.cls-70{clip-path:url(#clip-path-78);}.cls-71{clip-path:url(#clip-path-80);}.cls-72{clip-path:url(#clip-path-82);}.cls-73{clip-path:url(#clip-path-84);}.cls-74{clip-path:url(#clip-path-86);}.cls-75{clip-path:url(#clip-path-88);}.cls-76{clip-path:url(#clip-path-89);}.cls-77{clip-path:url(#clip-path-90);}.cls-78{clip-path:url(#clip-path-92);}.cls-79{clip-path:url(#clip-path-94);}.cls-80{clip-path:url(#clip-path-96);}.cls-81{clip-path:url(#clip-path-97);}.cls-82{clip-path:url(#clip-path-98);}.cls-83{clip-path:url(#clip-path-99);}.cls-84{clip-path:url(#clip-path-100);}.cls-85{clip-path:url(#clip-path-102);}.cls-86{clip-path:url(#clip-path-104);}.cls-87{clip-path:url(#clip-path-106);}.cls-88{clip-path:url(#clip-path-108);}.cls-89{clip-path:url(#clip-path-110);}.cls-90{clip-path:url(#clip-path-112);}.cls-91{clip-path:url(#clip-path-114);}.cls-92{clip-path:url(#clip-path-116);}.cls-93{clip-path:url(#clip-path-118);}.cls-94{clip-path:url(#clip-path-120);}.cls-95{clip-path:url(#clip-path-122);}.cls-96{clip-path:url(#clip-path-123);}.cls-97{clip-path:url(#clip-path-124);}.cls-98{clip-path:url(#clip-path-126);}.cls-99{clip-path:url(#clip-path-128);}.cls-100{stroke:#d1d1ed;stroke-width:1.71px;}.cls-100,.cls-102{stroke-linecap:round;stroke-miterlimit:10;}.cls-101{fill:#b9aef4;}.cls-102{stroke:#6c5a96;stroke-width:15.3px;}</style><clipPath id="clip-path"><path class="cls-1" d="M-1134.51,528.62q32.05-24.93,48.08-24.94c85.87,0,326.87-62.46,381.23,0q16.89,19.44,71.2,24.94c57.36,0,103.87,49.12,103.87,109.71v69.83c0,22-16.91,39.91-37.76,39.91h-632.67c-20.86,0-37.78-17.87-37.78-39.91V638.33C-1238.42,577.74-1191.92,528.62-1134.51,528.62Z"/></clipPath><clipPath id="clip-path-2"><ellipse class="cls-1" cx="-1066.09" cy="710.65" rx="63.74" ry="67.34"/></clipPath><clipPath id="clip-path-3"><ellipse class="cls-1" cx="-1066.09" cy="710.65" rx="37.77" ry="37.4"/></clipPath><clipPath id="clip-path-4"><ellipse class="cls-1" cx="-688.38" cy="710.65" rx="63.74" ry="67.34"/></clipPath><clipPath id="clip-path-5"><ellipse class="cls-1" cx="-688.38" cy="710.65" rx="37.77" ry="37.4"/></clipPath><clipPath id="clip-path-6"><path class="cls-1" d="M-1016.87,408.92h227.68a18.29,18.29,0,0,1,14.08,6.81l95.5,116.55c13.56,16.58,12,41.79-3.53,56.3a36.05,36.05,0,0,1-24.65,9.86h-394.09c-20.65,0-37.39-17.86-37.39-39.9a41.4,41.4,0,0,1,9.69-26.8l98.86-116.28A18.22,18.22,0,0,1-1016.87,408.92Z"/></clipPath><clipPath id="clip-path-7"><path class="cls-1" d="M-1013.86,423.88h218.37a18.21,18.21,0,0,1,14.22,7l59.74,74.82a20.88,20.88,0,0,1-2.08,28.12,18,18,0,0,1-12.13,4.77H-1081.5c-7.74,0-14-6.69-14-15a15.58,15.58,0,0,1,3.2-9.52l64.1-83A18.3,18.3,0,0,1-1013.86,423.88Z"/></clipPath><clipPath id="clip-path-8"><rect class="cls-1" x="-907.92" y="408.92" width="9.34" height="129.68"/></clipPath><clipPath id="clip-path-9"><path class="cls-1" d="M-740.4,503.16h14a9.67,9.67,0,0,1,9.35,10v20a9.67,9.67,0,0,1-9.35,10h-14a9.69,9.69,0,0,1-9.36-10v-20A9.68,9.68,0,0,1-740.4,503.16Z"/></clipPath><clipPath id="clip-path-10"><path class="cls-1" d="M-1083.45,529.42q32.06-24.93,48.08-24.94c85.88,0,326.88-62.46,381.23,0q16.9,19.42,71.21,24.94c57.36,0,103.87,49.12,103.87,109.72V709c0,22-16.91,39.91-37.77,39.91h-632.72c-20.86,0-37.77-17.87-37.77-39.91V639.14C-1187.32,578.54-1140.82,529.42-1083.45,529.42Z"/></clipPath><clipPath id="clip-path-11"><ellipse class="cls-1" cx="-1014.99" cy="711.46" rx="63.74" ry="67.34"/></clipPath><clipPath id="clip-path-12"><ellipse class="cls-1" cx="-1014.99" cy="711.46" rx="37.77" ry="37.4"/></clipPath><clipPath id="clip-path-13"><ellipse class="cls-1" cx="-637.28" cy="711.46" rx="63.74" ry="67.34"/></clipPath><clipPath id="clip-path-14"><ellipse class="cls-1" cx="-637.28" cy="711.46" rx="37.77" ry="37.4"/></clipPath><clipPath id="clip-path-15"><path class="cls-1" d="M-965.77,409.73h227.68a18.18,18.18,0,0,1,14.07,6.8l95.55,116.55c13.56,16.58,12,41.79-3.54,56.3a36,36,0,0,1-24.66,9.86h-394.11c-20.65,0-37.39-17.86-37.39-39.9a41.4,41.4,0,0,1,9.69-26.8l98.86-116.27A18.15,18.15,0,0,1-965.77,409.73Z"/></clipPath><clipPath id="clip-path-16"><path class="cls-1" d="M-962.76,424.68h218.3a18.23,18.23,0,0,1,14.23,7l59.84,74.82a20.89,20.89,0,0,1-2.09,28.12,18,18,0,0,1-12.14,4.77h-345.79c-7.75,0-14-6.69-14-14.95a15.64,15.64,0,0,1,3.19-9.52l64-83A18.28,18.28,0,0,1-962.76,424.68Z"/></clipPath><clipPath id="clip-path-17"><rect class="cls-1" x="-856.82" y="409.73" width="9.34" height="129.68"/></clipPath><clipPath id="clip-path-18"><path class="cls-1" d="M-689.3,504h14a9.67,9.67,0,0,1,9.35,10v20a9.7,9.7,0,0,1-9.35,10h-14a9.7,9.7,0,0,1-9.36-10v-20A9.68,9.68,0,0,1-689.3,504Z"/></clipPath><clipPath id="clip-path-19"><path class="cls-1" d="M-1017,526.41q32-25,48.07-24.94c85.88,0,326.88-62.45,381.23,0q16.9,19.42,71.21,24.94c57.36,0,103.86,49.13,103.86,109.72V706c0,22-16.9,39.9-37.77,39.9h-632.69c-20.86,0-37.78-17.87-37.78-39.9V636.13C-1120.92,575.56-1074.42,526.41-1017,526.41Z"/></clipPath><clipPath id="clip-path-20"><ellipse class="cls-1" cx="-948.59" cy="708.47" rx="63.74" ry="67.34"/></clipPath><clipPath id="clip-path-21"><ellipse class="cls-1" cx="-948.59" cy="708.47" rx="37.77" ry="37.4"/></clipPath><clipPath id="clip-path-22"><ellipse class="cls-1" cx="-570.88" cy="708.47" rx="63.74" ry="67.34"/></clipPath><clipPath id="clip-path-23"><ellipse class="cls-1" cx="-570.88" cy="708.47" rx="37.77" ry="37.4"/></clipPath><clipPath id="clip-path-24"><path class="cls-1" d="M-899.37,406.73h227.68a18.22,18.22,0,0,1,14.07,6.82l95.56,116.56c13.56,16.59,12,41.79-3.52,56.3a36.08,36.08,0,0,1-24.66,9.86H-984.37c-20.65,0-37.41-17.86-37.41-39.9a41.42,41.42,0,0,1,9.71-26.8l98.85-116.28A18.19,18.19,0,0,1-899.37,406.73Z"/></clipPath><clipPath id="clip-path-25"><path class="cls-1" d="M-896.35,421.7H-678a18.25,18.25,0,0,1,14.23,7L-604,503.5A21,21,0,0,1-606,531.64a18.06,18.06,0,0,1-12.15,4.77H-963.95c-7.74,0-14-6.7-14-15a15.52,15.52,0,0,1,3.19-9.5l64-83A18.23,18.23,0,0,1-896.35,421.7Z"/></clipPath><clipPath id="clip-path-26"><rect class="cls-1" x="-790.42" y="406.73" width="9.34" height="129.68"/></clipPath><clipPath id="clip-path-27"><path class="cls-1" d="M-622.91,501h14a9.66,9.66,0,0,1,9.34,10V530.9a9.66,9.66,0,0,1-9.34,10h-14a9.68,9.68,0,0,1-9.35-10V511A9.68,9.68,0,0,1-622.91,501Z"/></clipPath><clipPath id="clip-path-28"><path class="cls-1" d="M287.17,518.89Q319.23,494,335.25,494c85.87,0,326.87-62.46,381.23,0q16.89,19.44,71.2,24.94C845,518.89,891.54,568,891.54,628.6v69.83c0,22-16.9,39.91-37.76,39.91H221.12c-20.86,0-37.78-17.87-37.78-39.91V628.6C183.26,568,229.76,518.89,287.17,518.89Z"/></clipPath><clipPath id="clip-path-29"><rect class="cls-1" x="83.51" y="10.17" width="2344.07" height="797.99"/></clipPath><clipPath id="clip-path-30"><rect class="cls-1" x="158.32" y="439.09" width="758.08" height="324.17"/></clipPath><clipPath id="clip-path-31"><rect class="cls-1" x="183.26" y="439.09" width="708.2" height="304.23"/></clipPath><clipPath id="clip-path-32"><path class="cls-1" d="M184.06,583.72h63.1c8.26,0,15,7.07,15,15.79V617c0,8.73-6.71,15.8-15,15.8h-63.1c-8.27,0-15-7.07-15-15.8V599.51C169.09,590.79,175.79,583.72,184.06,583.72Z"/></clipPath><clipPath id="clip-path-34"><path class="cls-1" d="M184.06,583.72h63.1c8.26,0,15,7.07,15,15.79v4c0,8.73-6.71,15.79-15,15.79h-63.1c-8.27,0-15-7.06-15-15.79v-4C169.09,590.79,175.79,583.72,184.06,583.72Z"/></clipPath><clipPath id="clip-path-36"><rect class="cls-1" x="164.37" y="683.48" width="727.09" height="54.86"/></clipPath><clipPath id="clip-path-38"><rect class="cls-1" x="844.67" y="591.56" width="56.66" height="48.18" rx="17.46"/></clipPath><clipPath id="clip-path-40"><path class="cls-1" d="M855.74,617.61h34.52a11.1,11.1,0,1,1,0,22.19H855.74a11.1,11.1,0,0,1,0-22.19Z"/></clipPath><clipPath id="clip-path-42"><ellipse class="cls-1" cx="355.59" cy="700.92" rx="63.74" ry="67.34"/></clipPath><clipPath id="clip-path-44"><ellipse class="cls-1" cx="355.59" cy="700.92" rx="37.77" ry="37.4"/></clipPath><clipPath id="clip-path-46"><ellipse class="cls-1" cx="733.3" cy="700.92" rx="63.74" ry="67.34"/></clipPath><clipPath id="clip-path-48"><ellipse class="cls-1" cx="733.3" cy="700.92" rx="37.77" ry="37.4"/></clipPath><clipPath id="clip-path-50"><path class="cls-1" d="M404.81,399.19H632.49A18.26,18.26,0,0,1,646.56,406l95.51,116.55c13.56,16.58,12,41.79-3.53,56.3a36.05,36.05,0,0,1-24.65,9.86H319.8c-20.65,0-37.39-17.86-37.39-39.9A41.4,41.4,0,0,1,292.1,522L391,405.73A18.22,18.22,0,0,1,404.81,399.19Z"/></clipPath><clipPath id="clip-path-52"><path class="cls-1" d="M407.82,414.15H626.19a18.21,18.21,0,0,1,14.22,7L700.15,496a20.88,20.88,0,0,1-2.08,28.12,18,18,0,0,1-12.13,4.77H340.18c-7.74,0-14-6.69-14-15a15.57,15.57,0,0,1,3.19-9.52l64.11-83A18.28,18.28,0,0,1,407.82,414.15Z"/></clipPath><clipPath id="clip-path-54"><rect class="cls-1" x="297.97" y="389.22" width="538.63" height="618.43"/></clipPath><clipPath id="clip-path-55"><rect class="cls-1" x="322.91" y="414.15" width="384.03" height="114.71"/></clipPath><clipPath id="clip-path-56"><ellipse class="cls-1" cx="572.24" cy="728.36" rx="261.78" ry="279.29"/></clipPath><clipPath id="clip-path-58"><rect class="cls-1" x="513.76" y="399.19" width="9.34" height="129.68"/></clipPath><clipPath id="clip-path-60"><path class="cls-1" d="M681.28,493.43h14a9.67,9.67,0,0,1,9.35,10v20a9.68,9.68,0,0,1-9.35,10h-14a9.69,9.69,0,0,1-9.36-10v-20A9.68,9.68,0,0,1,681.28,493.43Z"/></clipPath><clipPath id="clip-path-62"><path class="cls-1" d="M338.23,519.69q32.06-24.93,48.08-24.94c85.88,0,326.87-62.46,381.23,0q16.9,19.42,71.2,24.94c57.37,0,103.88,49.12,103.88,109.72v69.82c0,22-16.92,39.91-37.77,39.91H272.13c-20.86,0-37.77-17.87-37.77-39.91V629.41C234.36,568.81,280.86,519.69,338.23,519.69Z"/></clipPath><clipPath id="clip-path-63"><rect class="cls-1" x="134.61" y="10.98" width="2344.07" height="797.99"/></clipPath><clipPath id="clip-path-64"><rect class="cls-1" x="209.42" y="439.89" width="758.08" height="324.17"/></clipPath><clipPath id="clip-path-65"><rect class="cls-1" x="234.36" y="439.89" width="708.2" height="304.23"/></clipPath><clipPath id="clip-path-66"><path class="cls-1" d="M235.16,584.48h63.1c8.26,0,15,7.08,15,15.79v17.52c0,8.73-6.71,15.81-15,15.81h-63.1c-8.26,0-15-7.08-15-15.81V600.31C220.19,591.6,226.9,584.48,235.16,584.48Z"/></clipPath><clipPath id="clip-path-68"><path class="cls-1" d="M235.16,584.48h63.1c8.26,0,15,7.08,15,15.79v4c0,8.72-6.71,15.79-15,15.79h-63.1c-8.26,0-15-7.07-15-15.79v-4C220.19,591.6,226.9,584.48,235.16,584.48Z"/></clipPath><clipPath id="clip-path-70"><rect class="cls-1" x="215.47" y="684.28" width="727.09" height="54.86"/></clipPath><clipPath id="clip-path-72"><rect class="cls-1" x="895.77" y="592.36" width="56.66" height="48.18" rx="17.46"/></clipPath><clipPath id="clip-path-74"><path class="cls-1" d="M906.84,618.41h34.52a11.1,11.1,0,1,1,0,22.19H906.84a11.1,11.1,0,0,1,0-22.19Z"/></clipPath><clipPath id="clip-path-76"><ellipse class="cls-1" cx="406.69" cy="701.73" rx="63.74" ry="67.34"/></clipPath><clipPath id="clip-path-78"><ellipse class="cls-1" cx="406.69" cy="701.73" rx="37.77" ry="37.4"/></clipPath><clipPath id="clip-path-80"><ellipse class="cls-1" cx="784.4" cy="701.73" rx="63.74" ry="67.34"/></clipPath><clipPath id="clip-path-82"><ellipse class="cls-1" cx="784.4" cy="701.73" rx="37.77" ry="37.4"/></clipPath><clipPath id="clip-path-84"><path class="cls-1" d="M455.91,400H683.58a18.19,18.19,0,0,1,14.08,6.8L793.2,523.35c13.56,16.58,12,41.79-3.53,56.3A36.05,36.05,0,0,1,765,589.51H370.9c-20.65,0-37.39-17.86-37.39-39.9a41.4,41.4,0,0,1,9.69-26.8l98.86-116.27A18.12,18.12,0,0,1,455.91,400Z"/></clipPath><clipPath id="clip-path-86"><path class="cls-1" d="M458.92,415h218.3a18.25,18.25,0,0,1,14.23,7l59.84,74.82a20.88,20.88,0,0,1-2.1,28.12,18,18,0,0,1-12.13,4.77H391.26c-7.74,0-14-6.69-14-14.95a15.64,15.64,0,0,1,3.19-9.52l64-83A18.3,18.3,0,0,1,458.92,415Z"/></clipPath><clipPath id="clip-path-88"><rect class="cls-1" x="349.07" y="390.02" width="538.63" height="618.43"/></clipPath><clipPath id="clip-path-89"><rect class="cls-1" x="374.01" y="414.95" width="384.03" height="114.71"/></clipPath><clipPath id="clip-path-90"><ellipse class="cls-1" cx="623.34" cy="729.16" rx="261.78" ry="279.29"/></clipPath><clipPath id="clip-path-92"><rect class="cls-1" x="564.85" y="400" width="9.34" height="129.68"/></clipPath><clipPath id="clip-path-94"><path class="cls-1" d="M732.38,494.23h14a9.67,9.67,0,0,1,9.35,10v19.95a9.7,9.7,0,0,1-9.35,10h-14a9.7,9.7,0,0,1-9.36-10V504.2A9.68,9.68,0,0,1,732.38,494.23Z"/></clipPath><clipPath id="clip-path-96"><path class="cls-1" d="M404.62,516.68q32.06-25,48.08-24.94c85.88,0,326.88-62.45,381.23,0q16.91,19.42,71.21,24.94c57.36,0,103.86,49.13,103.86,109.72v69.82c0,22-16.9,39.9-37.77,39.9H338.53c-20.85,0-37.77-17.87-37.77-39.9V626.4C300.76,565.83,347.26,516.68,404.62,516.68Z"/></clipPath><clipPath id="clip-path-97"><rect class="cls-1" x="201.02" y="7.99" width="2344.07" height="797.99"/></clipPath><clipPath id="clip-path-98"><rect class="cls-1" x="275.82" y="436.91" width="758.08" height="324.17"/></clipPath><clipPath id="clip-path-99"><rect class="cls-1" x="300.76" y="436.91" width="708.2" height="304.23"/></clipPath><clipPath id="clip-path-100"><path class="cls-1" d="M301.55,581.54h63.12c8.26,0,14.95,7.07,14.95,15.79v17.52c0,8.72-6.69,15.79-14.95,15.79H301.55c-8.26,0-14.95-7.07-14.95-15.79V597.33C286.6,588.61,293.29,581.54,301.55,581.54Z"/></clipPath><clipPath id="clip-path-102"><path class="cls-1" d="M301.55,581.54h63.12c8.26,0,14.95,7.07,14.95,15.79v4c0,8.73-6.69,15.79-14.95,15.79H301.55c-8.26,0-14.95-7.06-14.95-15.79v-4C286.6,588.61,293.29,581.54,301.55,581.54Z"/></clipPath><clipPath id="clip-path-104"><rect class="cls-1" x="281.87" y="681.28" width="727.09" height="54.86"/></clipPath><clipPath id="clip-path-106"><rect class="cls-1" x="962.18" y="589.38" width="56.66" height="48.18" rx="17.46"/></clipPath><clipPath id="clip-path-108"><path class="cls-1" d="M973.25,615.43h34.52a11.1,11.1,0,0,1,0,22.19H973.25a11.1,11.1,0,1,1,0-22.19Z"/></clipPath><clipPath id="clip-path-110"><ellipse class="cls-1" cx="473.09" cy="698.74" rx="63.74" ry="67.34"/></clipPath><clipPath id="clip-path-112"><ellipse class="cls-1" cx="473.09" cy="698.74" rx="37.77" ry="37.4"/></clipPath><clipPath id="clip-path-114"><ellipse class="cls-1" cx="850.8" cy="698.74" rx="63.74" ry="67.34"/></clipPath><clipPath id="clip-path-116"><ellipse class="cls-1" cx="850.8" cy="698.74" rx="37.77" ry="37.4"/></clipPath><clipPath id="clip-path-118"><path class="cls-1" d="M522.31,397H750a18.22,18.22,0,0,1,14.07,6.82l95.56,116.56c13.56,16.59,12,41.79-3.52,56.3a36.1,36.1,0,0,1-24.66,9.86H437.31c-20.65,0-37.41-17.86-37.41-39.9a41.41,41.41,0,0,1,9.7-26.8l98.86-116.28A18.18,18.18,0,0,1,522.31,397Z"/></clipPath><clipPath id="clip-path-120"><path class="cls-1" d="M525.33,412h218.3a18.25,18.25,0,0,1,14.23,7l59.85,74.8a21,21,0,0,1-2.09,28.14,18,18,0,0,1-12.14,4.77H457.73c-7.74,0-14-6.7-14-15a15.45,15.45,0,0,1,3.19-9.5l64-83A18.22,18.22,0,0,1,525.33,412Z"/></clipPath><clipPath id="clip-path-122"><rect class="cls-1" x="415.47" y="387.03" width="538.63" height="618.43"/></clipPath><clipPath id="clip-path-123"><rect class="cls-1" x="440.4" y="411.97" width="384.03" height="114.71"/></clipPath><clipPath id="clip-path-124"><ellipse class="cls-1" cx="689.73" cy="726.17" rx="261.78" ry="279.29"/></clipPath><clipPath id="clip-path-126"><rect class="cls-1" x="631.26" y="397" width="9.34" height="129.68"/></clipPath><clipPath id="clip-path-128"><path class="cls-1" d="M798.77,491.25h14a9.66,9.66,0,0,1,9.34,10v19.95a9.66,9.66,0,0,1-9.34,10h-14a9.68,9.68,0,0,1-9.35-10V501.22A9.68,9.68,0,0,1,798.77,491.25Z"/></clipPath></defs><g id="Layer_3" data-name="Layer 3"><rect class="cls-2" x="-54" y="-58" width="1214" height="1221"/></g><g id="Layer_2" data-name="Layer 2"><circle class="cls-3" cx="550" cy="552" r="419"/><rect class="cls-2" x="138.82" y="779.4" width="756.74" height="190.6"/></g><g id="Layer_13" data-name="Layer 13"><g id="Layer_1-3" data-name="Layer 1"><g class="cls-4"><g class="cls-33"><g class="cls-34"><g class="cls-35"><g class="cls-36"><rect class="cls-37" x="158.32" y="441.26" width="758.08" height="322.02"/></g><g class="cls-38"><g class="cls-36"><rect class="cls-39" x="144.15" y="558.79" width="142.91" height="98.98"/></g></g><g class="cls-40"><g class="cls-36"><rect class="cls-41" x="144.15" y="558.79" width="142.91" height="85.44"/></g></g><g class="cls-42"><g class="cls-36"><rect class="cls-43" x="139.43" y="658.54" width="776.97" height="104.74"/></g></g><g class="cls-44"><g class="cls-36"><rect class="cls-3" x="819.73" y="566.63" width="106.53" height="98.06"/></g></g><g class="cls-45"><g class="cls-36"><rect class="cls-46" x="819.73" y="592.67" width="106.53" height="72.01"/></g></g></g></g></g><g class="cls-47"><g class="cls-34"><rect class="cls-48" x="266.91" y="608.66" width="177.35" height="184.54"/></g></g><g class="cls-49"><g class="cls-34"><rect class="cls-50" x="292.88" y="638.59" width="125.41" height="124.68"/></g></g><g class="cls-51"><g class="cls-34"><rect class="cls-48" x="644.62" y="608.66" width="177.35" height="184.54"/></g></g><g class="cls-52"><g class="cls-34"><rect class="cls-50" x="670.59" y="638.59" width="125.41" height="124.68"/></g></g><g class="cls-53"><g class="cls-34"><rect class="cls-37" x="257.47" y="374.25" width="518.82" height="239.4"/></g></g><g class="cls-54"><g class="cls-34"><g class="cls-55"><g class="cls-56"><rect class="cls-3" x="301.21" y="389.22" width="428.38" height="164.58"/></g><g class="cls-57"><g class="cls-56"><rect class="cls-46" x="285.52" y="424.12" width="573.43" height="608.46"/></g></g></g></g></g><g class="cls-58"><g class="cls-34"><rect class="cls-37" x="488.82" y="374.25" width="59.22" height="179.54"/></g></g><g class="cls-59"><g class="cls-34"><rect class="cls-43" x="646.98" y="468.49" width="82.6" height="89.77"/></g></g></g><g class="cls-14"><g class="cls-60"><g class="cls-61"><g class="cls-62"><g class="cls-63"><rect class="cls-37" x="209.42" y="442.06" width="758.08" height="322.02"/></g><g class="cls-64"><g class="cls-63"><rect class="cls-39" x="195.25" y="559.59" width="142.91" height="98.98"/></g></g><g class="cls-65"><g class="cls-63"><rect class="cls-41" x="195.25" y="559.59" width="142.91" height="85.44"/></g></g><g class="cls-66"><g class="cls-63"><rect class="cls-43" x="190.53" y="659.34" width="776.97" height="104.74"/></g></g><g class="cls-67"><g class="cls-63"><rect class="cls-3" x="870.83" y="567.43" width="106.53" height="98.06"/></g></g><g class="cls-68"><g class="cls-63"><rect class="cls-46" x="870.83" y="593.47" width="106.53" height="72.01"/></g></g></g></g></g><g class="cls-69"><g class="cls-61"><rect class="cls-48" x="318.01" y="609.46" width="177.35" height="184.54"/></g></g><g class="cls-70"><g class="cls-61"><rect class="cls-50" x="343.98" y="639.39" width="125.41" height="124.68"/></g></g><g class="cls-71"><g class="cls-61"><rect class="cls-48" x="695.73" y="609.46" width="177.35" height="184.54"/></g></g><g class="cls-72"><g class="cls-61"><rect class="cls-50" x="721.69" y="639.39" width="125.41" height="124.68"/></g></g><g class="cls-73"><g class="cls-61"><rect class="cls-37" x="308.57" y="375.06" width="518.82" height="239.4"/></g></g><g class="cls-74"><g class="cls-61"><g class="cls-75"><g class="cls-76"><rect class="cls-3" x="352.31" y="390.02" width="428.38" height="164.58"/></g><g class="cls-77"><g class="cls-76"><rect class="cls-46" x="336.62" y="424.92" width="573.43" height="608.46"/></g></g></g></g></g><g class="cls-78"><g class="cls-61"><rect class="cls-37" x="539.91" y="375.06" width="59.22" height="179.54"/></g></g><g class="cls-79"><g class="cls-61"><rect class="cls-43" x="698.09" y="469.29" width="82.6" height="89.77"/></g></g></g><g class="cls-80"><g class="cls-81"><g class="cls-82"><g class="cls-83"><rect class="cls-37" x="275.82" y="439.08" width="758.08" height="322.02"/></g><g class="cls-84"><g class="cls-83"><rect class="cls-39" x="261.66" y="556.6" width="142.91" height="98.98"/></g></g><g class="cls-85"><g class="cls-83"><rect class="cls-41" x="261.66" y="556.6" width="142.91" height="85.44"/></g></g><g class="cls-86"><g class="cls-83"><rect class="cls-43" x="256.94" y="656.35" width="776.97" height="104.74"/></g></g><g class="cls-87"><g class="cls-83"><rect class="cls-3" x="937.24" y="564.44" width="106.53" height="98.06"/></g></g><g class="cls-88"><g class="cls-83"><rect class="cls-46" x="937.24" y="590.49" width="106.53" height="72.01"/></g></g></g></g></g><g class="cls-89"><g class="cls-81"><rect class="cls-48" x="384.42" y="606.48" width="177.35" height="184.54"/></g></g><g class="cls-90"><g class="cls-81"><rect class="cls-50" x="410.38" y="636.4" width="125.41" height="124.68"/></g></g><g class="cls-91"><g class="cls-81"><rect class="cls-48" x="762.12" y="606.48" width="177.35" height="184.54"/></g></g><g class="cls-92"><g class="cls-81"><rect class="cls-50" x="788.1" y="636.4" width="125.41" height="124.68"/></g></g><g class="cls-93"><g class="cls-81"><rect class="cls-37" x="374.98" y="372.07" width="518.82" height="239.4"/></g></g><g class="cls-94"><g class="cls-81"><g class="cls-95"><g class="cls-96"><rect class="cls-3" x="418.71" y="387.03" width="428.38" height="164.58"/></g><g class="cls-97"><g class="cls-96"><rect class="cls-46" x="403.02" y="421.94" width="573.43" height="608.46"/></g></g></g></g></g><g class="cls-98"><g class="cls-81"><rect class="cls-37" x="606.32" y="372.07" width="59.22" height="179.54"/></g></g><g class="cls-99"><g class="cls-81"><rect class="cls-43" x="764.49" y="466.31" width="82.6" height="89.77"/></g></g><line class="cls-100" x1="26.67" y1="746.62" x2="33.44" y2="745.87"/></g><rect class="cls-101" x="504.13" y="263.78" width="267.36" height="92.08" rx="7.88"/><path class="cls-3" d="M535,290.45a2.5,2.5,0,0,1,1.52,2.18v10.72a4.5,4.5,0,0,1-1.15,2.76l-2.12,2.12c-.63.63-1.47.81-1.87.41a3.84,3.84,0,0,1-.74-2.35V290.43a1.05,1.05,0,0,1,1.52-1.05Zm-2.84,40.38a1,1,0,0,1-1.52-1V313.93a3.82,3.82,0,0,1,.74-2.35c.4-.41,1.24-.22,1.87.4l2.12,2.13a4.45,4.45,0,0,1,1.15,2.75v10.72a2.52,2.52,0,0,1-1.52,2.19Zm23.62,4.2a1,1,0,0,1-1,1.51h-18.8a7.62,7.62,0,0,1-3-.76l-1.48-1.49a1.38,1.38,0,0,1,.75-2l2.84-1.07a10.79,10.79,0,0,1,3.13-.56h14.39a2.52,2.52,0,0,1,2.19,1.51Zm-1.07-47a2.51,2.51,0,0,1-2.19,1.52H538.22a10.75,10.75,0,0,1-3.13-.57l-2.85-1.07a1.38,1.38,0,0,1-.75-2l1.49-1.48a7.59,7.59,0,0,1,3-.77h18.73a1,1,0,0,1,1,1.51Zm2,18.08a4.49,4.49,0,0,1-1.14-2.76V291.16a10.48,10.48,0,0,1,.57-3.13l1.06-2.85a1.38,1.38,0,0,1,2-.74l1.49,1.48a7.62,7.62,0,0,1,.76,3v17.33a3.91,3.91,0,0,1-.73,2.35c-.41.4-1.25.22-1.88-.41Zm2.12,5.87c.63-.62,1.47-.81,1.88-.4a3.89,3.89,0,0,1,.73,2.35v17.33a7.62,7.62,0,0,1-.76,3l-1.49,1.49a1.38,1.38,0,0,1-2-.75l-1.06-2.85a10.42,10.42,0,0,1-.57-3.13V316.86a4.44,4.44,0,0,1,1.14-2.75Z"/><path class="cls-3" d="M576.58,290.45a2.5,2.5,0,0,1,1.51,2.18v10.72a4.55,4.55,0,0,1-1.14,2.76l-2.13,2.12c-.62.63-1.47.81-1.87.41a3.84,3.84,0,0,1-.74-2.35V290.43a1.05,1.05,0,0,1,1.52-1.05ZM597.35,335a1,1,0,0,1-1.05,1.51H577.5a7.62,7.62,0,0,1-3-.76L573,334.29a1.38,1.38,0,0,1,.75-2l2.85-1.07a10.67,10.67,0,0,1,3.12-.56h14.4a2.52,2.52,0,0,1,2.18,1.51Zm-1.07-47a2.51,2.51,0,0,1-2.18,1.52H579.78a10.75,10.75,0,0,1-3.13-.57l-2.85-1.07a1.38,1.38,0,0,1-.75-2l1.49-1.48a7.63,7.63,0,0,1,3-.77H596.3a1,1,0,0,1,1.05,1.51Zm-.72,19.14a4.49,4.49,0,0,1,2.76,1.14l.65.66a1.61,1.61,0,0,1,0,2.28l-.65.65a4.49,4.49,0,0,1-2.76,1.14H579.7A4.44,4.44,0,0,1,577,311.9l-.66-.65a1.61,1.61,0,0,1,0-2.28l.66-.66a4.44,4.44,0,0,1,2.75-1.14Zm2.76-1.06a4.49,4.49,0,0,1-1.14-2.76V291.16a10.81,10.81,0,0,1,.57-3.13l1.07-2.85a1.37,1.37,0,0,1,2-.74l1.49,1.48a7.62,7.62,0,0,1,.76,3v17.33a3.91,3.91,0,0,1-.73,2.35c-.4.4-1.25.22-1.88-.41Zm2.12,5.87c.63-.62,1.48-.81,1.88-.4a3.89,3.89,0,0,1,.73,2.35v17.33a7.62,7.62,0,0,1-.76,3l-1.49,1.49a1.37,1.37,0,0,1-2-.75l-1.07-2.85a10.75,10.75,0,0,1-.57-3.13V316.86a4.44,4.44,0,0,1,1.14-2.75Z"/><path class="cls-3" d="M618.88,306.11a4.49,4.49,0,0,1-1.14-2.76V291.16a10.81,10.81,0,0,1,.57-3.13l1.07-2.85a1.37,1.37,0,0,1,2-.74l1.48,1.48a7.62,7.62,0,0,1,.76,3v17.33a3.91,3.91,0,0,1-.73,2.35c-.4.4-1.25.22-1.88-.41ZM621,312c.63-.62,1.48-.81,1.88-.4a3.89,3.89,0,0,1,.73,2.35v17.33a7.62,7.62,0,0,1-.76,3l-1.48,1.49a1.38,1.38,0,0,1-2-.75l-1.07-2.85a10.75,10.75,0,0,1-.57-3.13V316.86a4.44,4.44,0,0,1,1.14-2.75Z"/><path class="cls-3" d="M657.85,335a1,1,0,0,1-1.05,1.51H638a7.62,7.62,0,0,1-3-.76l-1.48-1.49a1.37,1.37,0,0,1,.74-2l2.85-1.07a10.73,10.73,0,0,1,3.13-.56H654.6a2.5,2.5,0,0,1,2.18,1.51Zm-1.07-47a2.5,2.5,0,0,1-2.18,1.52H640.28a10.81,10.81,0,0,1-3.13-.57l-2.84-1.07a1.37,1.37,0,0,1-.75-2l1.48-1.48a7.63,7.63,0,0,1,3-.77H656.8a1,1,0,0,1,1.05,1.51Zm-.71,19.14a4.49,4.49,0,0,1,2.76,1.14l.65.66a1.61,1.61,0,0,1,0,2.28l-.65.65a4.49,4.49,0,0,1-2.76,1.14H640.21a4.49,4.49,0,0,1-2.76-1.14l-.65-.65a1.61,1.61,0,0,1,0-2.28l.65-.66a4.49,4.49,0,0,1,2.76-1.14Zm2.76-1.06a4.49,4.49,0,0,1-1.14-2.76V291.16a10.79,10.79,0,0,1,.56-3.13l1.07-2.85a1.38,1.38,0,0,1,2-.74l1.48,1.48a7.47,7.47,0,0,1,.77,3v17.33a3.91,3.91,0,0,1-.73,2.35c-.41.4-1.25.22-1.88-.41ZM661,312c.63-.62,1.47-.81,1.88-.4a3.89,3.89,0,0,1,.73,2.35v17.33a7.46,7.46,0,0,1-.77,3l-1.48,1.49a1.38,1.38,0,0,1-2-.75l-1.07-2.85a10.73,10.73,0,0,1-.56-3.13V316.86a4.44,4.44,0,0,1,1.14-2.75Z"/><path class="cls-3" d="M677,290.45a2.5,2.5,0,0,1,1.51,2.18v10.72a4.49,4.49,0,0,1-1.14,2.76l-2.12,2.12c-.63.63-1.48.81-1.88.41a3.91,3.91,0,0,1-.73-2.35V290.43a1,1,0,0,1,1.51-1.05Zm-2.85,40.38a1,1,0,0,1-1.51-1V313.93a3.89,3.89,0,0,1,.73-2.35c.4-.41,1.25-.22,1.88.4l2.12,2.13a4.44,4.44,0,0,1,1.14,2.75v10.72a2.53,2.53,0,0,1-1.51,2.19ZM697.8,335a1,1,0,0,1-1,1.51H678a7.66,7.66,0,0,1-3-.76l-1.48-1.49a1.38,1.38,0,0,1,.75-2l2.85-1.07a10.73,10.73,0,0,1,3.12-.56h14.4a2.5,2.5,0,0,1,2.18,1.51Zm-1.07-47a2.5,2.5,0,0,1-2.18,1.52H680.23a10.75,10.75,0,0,1-3.13-.57l-2.85-1.07a1.38,1.38,0,0,1-.75-2l1.49-1.48a7.63,7.63,0,0,1,3-.77h18.72a1,1,0,0,1,1,1.51Zm2,18.08a4.55,4.55,0,0,1-1.14-2.76V291.16a10.81,10.81,0,0,1,.57-3.13l1.07-2.85a1.37,1.37,0,0,1,2-.74l1.48,1.48a7.63,7.63,0,0,1,.77,3v17.33a3.84,3.84,0,0,1-.74,2.35c-.4.4-1.25.22-1.88-.41Zm2.12,5.87c.63-.62,1.48-.81,1.88-.4a3.82,3.82,0,0,1,.74,2.35v17.33a7.63,7.63,0,0,1-.77,3l-1.48,1.49a1.38,1.38,0,0,1-2-.75l-1.07-2.85a10.75,10.75,0,0,1-.57-3.13V316.86a4.5,4.5,0,0,1,1.14-2.75Z"/><path class="cls-3" d="M737.74,359.26a1,1,0,0,1-1,1.51H717.9a7.62,7.62,0,0,1-3-.76l-1.48-1.48a1.37,1.37,0,0,1,.74-2l2.85-1.07a10.48,10.48,0,0,1,3.13-.57h14.39a2.53,2.53,0,0,1,2.19,1.51Zm-1.06-47a2.53,2.53,0,0,1-2.19,1.51H720.17a10.74,10.74,0,0,1-3.12-.57l-2.85-1.07a1.38,1.38,0,0,1-.75-2l1.48-1.48a7.67,7.67,0,0,1,3-.77H736.7a1,1,0,0,1,1,1.52ZM736,331.4a4.55,4.55,0,0,1,2.76,1.14l.65.66a1.61,1.61,0,0,1,0,2.28l-.65.65a4.5,4.5,0,0,1-2.76,1.15H720.1a4.5,4.5,0,0,1-2.76-1.15l-.65-.65a1.61,1.61,0,0,1,0-2.28l.65-.66a4.55,4.55,0,0,1,2.76-1.14Zm2.76-1.06a4.49,4.49,0,0,1-1.14-2.76V315.39a10.73,10.73,0,0,1,.56-3.12l1.07-2.85a1.37,1.37,0,0,1,2-.75l1.49,1.48a7.66,7.66,0,0,1,.76,3v17.33a3.89,3.89,0,0,1-.73,2.35c-.41.4-1.25.22-1.88-.41Zm2.12,5.88c.63-.63,1.47-.82,1.88-.41a3.89,3.89,0,0,1,.73,2.35v17.33a7.57,7.57,0,0,1-.76,3L741.2,360a1.38,1.38,0,0,1-2-.75l-1.07-2.85a10.73,10.73,0,0,1-.56-3.13V341.09a4.49,4.49,0,0,1,1.14-2.75Z"/><path class="cls-3" d="M714.59,292.92a1,1,0,0,1-1.51-1.05V276a3.82,3.82,0,0,1,.74-2.35c.4-.41,1.24-.22,1.87.4l2.12,2.13a4.47,4.47,0,0,1,1.15,2.75v10.72a2.52,2.52,0,0,1-1.52,2.19Zm25.83,4.19a1,1,0,0,1-1,1.51h-21a7.62,7.62,0,0,1-3-.76l-1.48-1.49a1.38,1.38,0,0,1,.74-2l2.85-1.06a10.48,10.48,0,0,1,3.13-.57h16.6a2.5,2.5,0,0,1,2.18,1.51Zm-3.27-47a2.53,2.53,0,0,1-2.19,1.51H720.64a10.74,10.74,0,0,1-3.12-.57L714.67,250a1.38,1.38,0,0,1-.75-2l1.48-1.48a7.67,7.67,0,0,1,3-.77h18.73a1.05,1.05,0,0,1,1.05,1.52Zm-.72,19.13a4.55,4.55,0,0,1,2.76,1.14l.65.66a1.61,1.61,0,0,1,0,2.28l-.65.65a4.49,4.49,0,0,1-2.76,1.14H720.57a4.49,4.49,0,0,1-2.76-1.14l-.65-.65a1.61,1.61,0,0,1,0-2.28l.65-.66a4.55,4.55,0,0,1,2.76-1.14Zm2.76-1.06a4.49,4.49,0,0,1-1.14-2.76V253.24a10.73,10.73,0,0,1,.56-3.12l1.07-2.85a1.37,1.37,0,0,1,2-.75l1.49,1.48a7.66,7.66,0,0,1,.76,3v17.33a3.89,3.89,0,0,1-.73,2.35c-.41.4-1.25.22-1.88-.41Z"/></g><g id="Layer_11" data-name="Layer 11"><line class="cls-102" x1="149.77" y1="774.24" x2="948.02" y2="774.24"/></g><g id="Layer_18" data-name="Layer 18"><rect class="cls-101" x="693.41" y="263.71" width="69.59" height="12.56"/><rect class="cls-101" x="687.83" y="343.25" width="69.59" height="12.56"/><path class="cls-101" d="M749.1,374.69l-2.74-25.4a2.23,2.23,0,0,0-3.06-1.83l-13.12,5.37a2.23,2.23,0,0,0-.9,3.45l15.86,20A2.23,2.23,0,0,0,749.1,374.69Z"/></g></svg>