<svg xmlns="http://www.w3.org/2000/svg" xmlns:xlink="http://www.w3.org/1999/xlink" viewBox="0 0 1100 1100"><defs><style>.cls-1,.cls-10,.cls-8{fill:#6a5d84;}.cls-1,.cls-5{clip-rule:evenodd;}.cls-2{fill:#786d90;}.cls-3,.cls-5,.cls-7{fill:none;}.cls-4{fill:#ddd5ef;}.cls-25,.cls-6{fill:#fff;}.cls-7{stroke:#6c5a96;stroke-linecap:round;stroke-miterlimit:10;stroke-width:14px;}.cls-25,.cls-35,.cls-8{fill-rule:evenodd;}.cls-9{clip-path:url(#clip-path);}.cls-11{clip-path:url(#clip-path-2);}.cls-12{clip-path:url(#clip-path-3);}.cls-13{clip-path:url(#clip-path-4);}.cls-14{clip-path:url(#clip-path-5);}.cls-15{clip-path:url(#clip-path-6);}.cls-16{clip-path:url(#clip-path-7);}.cls-17{clip-path:url(#clip-path-8);}.cls-18{isolation:isolate;}.cls-19{clip-path:url(#clip-path-9);}.cls-20{clip-path:url(#clip-path-10);}.cls-21{fill:#8a7db2;}.cls-22{clip-path:url(#clip-path-11);}.cls-23{clip-path:url(#clip-path-12);}.cls-24{fill:#b6a6dd;}.cls-26{clip-path:url(#clip-path-13);}.cls-27{clip-path:url(#clip-path-14);}.cls-28{clip-path:url(#clip-path-15);}.cls-29{fill:#e9e2f4;}.cls-30{fill:#f2f0f7;opacity:0.48;}.cls-31{clip-path:url(#clip-path-16);}.cls-32{clip-path:url(#clip-path-17);}.cls-33{clip-path:url(#clip-path-18);}.cls-34{clip-path:url(#clip-path-19);}.cls-35,.cls-36{fill:#aca3d1;}</style><clipPath id="clip-path"><path class="cls-1" d="M233.47,718.25l135,2v76.19a7.86,7.86,0,0,1-7.86,7.86H279c-13,0-22.51-10.35-23.52-13.66Z"/></clipPath><clipPath id="clip-path-2"><ellipse class="cls-2" cx="356.53" cy="721.84" rx="32.31" ry="82.48"/></clipPath><clipPath id="clip-path-3"><path class="cls-5" d="M762.14,696.73H870.29v76.19a7.86,7.86,0,0,1-7.86,7.86H770a7.86,7.86,0,0,1-7.86-7.86Z"/></clipPath><clipPath id="clip-path-4"><path class="cls-5" d="M580.46,720.27h153v76.19a7.86,7.86,0,0,1-7.86,7.86H616.86a7.84,7.84,0,0,1-7.37-5.15Z"/></clipPath><clipPath id="clip-path-5"><path class="cls-5" d="M707.7,718.25l149.23,2v76.19a7.65,7.65,0,0,1-7.42,7.86h-103a7.44,7.44,0,0,1-6.85-4.83Z"/></clipPath><clipPath id="clip-path-6"><rect class="cls-4" x="275.95" y="471.85" width="68.61" height="43.03" rx="3.93"/></clipPath><clipPath id="clip-path-7"><path class="cls-5" d="M340.63,471.85H334V514h6.62a3.93,3.93,0,0,0,3.93-3.93V475.78A3.93,3.93,0,0,0,340.63,471.85Z"/></clipPath><clipPath id="clip-path-8"><path class="cls-5" d="M841,526.63c15.08,17.88,34.49,111,34.49,153.24s-4.25,53.45-14.79,66.25c-4,4.92-20.88,12.81-92.25,15.49q-49.2,1.85-199.51.21-175.78,1.63-225-.21C272.54,758.93,242.56,751,238.5,746.12c-10.54-12.8-14.78-24-14.78-66.25S243.12,579,258.21,561.11c29.14-34.54,41.92-41,69.78-55,11-13.23,5.86-26.4,60.84-107.73,59.39-71.82,169.28-71.41,267-52.44S816.33,471.85,841,526.63Z"/></clipPath><clipPath id="clip-path-9"><rect class="cls-3" x="210.26" y="255.63" width="689.13" height="520.62"/></clipPath><clipPath id="clip-path-10"><rect class="cls-3" x="223.36" y="166.1" width="652.45" height="597.05"/></clipPath><clipPath id="clip-path-11"><rect class="cls-3" x="223.72" y="698.01" width="674.82" height="63.27"/></clipPath><clipPath id="clip-path-12"><rect class="cls-3" x="223.36" y="359.63" width="652.45" height="403.52"/></clipPath><clipPath id="clip-path-13"><ellipse class="cls-3" cx="848.28" cy="721.84" rx="28.72" ry="82.48"/></clipPath><clipPath id="clip-path-14"><ellipse class="cls-3" cx="719.06" cy="721.84" rx="28.72" ry="82.48"/></clipPath><clipPath id="clip-path-15"><ellipse class="cls-3" cx="719.06" cy="721.84" rx="14.36" ry="46.62"/></clipPath><clipPath id="clip-path-16"><ellipse class="cls-3" cx="848.28" cy="721.84" rx="14.36" ry="46.62"/></clipPath><clipPath id="clip-path-17"><rect class="cls-4" x="645.92" y="471.85" width="68.61" height="43.03" rx="3.93"/></clipPath><clipPath id="clip-path-18"><path class="cls-5" d="M704,471.85h6.62a3.93,3.93,0,0,1,3.93,3.93v34.33A3.93,3.93,0,0,1,710.6,514H704Z"/></clipPath><clipPath id="clip-path-19"><rect class="cls-3" x="381.65" y="679.02" width="114.86" height="57.38" rx="5.24"/></clipPath></defs><g id="Layer_2" data-name="Layer 2"><path class="cls-6" d="M969,552c0-231.41-187.59-419-419-419S131,320.59,131,552a417.3,417.3,0,0,0,96.08,267H872.92A417.3,417.3,0,0,0,969,552Z"/></g><g id="Layer_6" data-name="Layer 6"><line class="cls-7" x1="83" y1="810" x2="992" y2="810"/></g><g id="Layer_13" data-name="Layer 13"><path class="cls-8" d="M233.47,718.25l135,2v76.19a7.86,7.86,0,0,1-7.86,7.86H279c-13,0-22.51-10.35-23.52-13.66Z"/><g class="cls-9"><rect class="cls-10" x="220.37" y="705.15" width="161.26" height="112.27"/></g><ellipse class="cls-2" cx="356.53" cy="721.84" rx="32.31" ry="82.48"/><g class="cls-11"><rect class="cls-2" x="311.12" y="626.25" width="90.81" height="191.17"/></g><g class="cls-12"><rect class="cls-10" x="749.04" y="683.63" width="134.36" height="110.25"/></g><g class="cls-13"><rect class="cls-10" x="567.35" y="707.17" width="179.17" height="110.25"/></g><g class="cls-14"><rect class="cls-10" x="695.32" y="705.15" width="174" height="112.27"/></g><rect class="cls-4" x="275.95" y="471.85" width="68.61" height="43.03" rx="3.93"/><g class="cls-15"><rect class="cls-4" x="262.85" y="458.75" width="94.81" height="69.24"/></g><g class="cls-16"><rect class="cls-4" x="320.91" y="458.75" width="36.76" height="68.39"/></g><g class="cls-17"><g class="cls-18"><g class="cls-19"><g class="cls-20"><rect class="cls-21" x="210.61" y="146.71" width="677.92" height="634.99"/></g><g class="cls-22"><g class="cls-23"><rect class="cls-24" x="210.61" y="684.91" width="701.02" height="89.48"/></g></g></g></g></g><path class="cls-25" d="M811.28,501.56c-10.47-21.78-39.55-74-87.86-110a192.65,192.65,0,0,0-50.63-23.94c-2.91,2.87-5.73,5.82-8.43,8.89q-2.21,2.52-4.29,5.14c-.18.26-1.24,1.64-1.41,1.88-.65.89-1.28,1.79-1.91,2.7a126.67,126.67,0,0,0-8.08,13.35c-1,2-2,4-2.94,6.07,12.84,30.47,13.44,73.39,11.71,95.92Z"/><g class="cls-26"><rect class="cls-2" x="806.47" y="626.25" width="83.63" height="191.17"/></g><g class="cls-27"><rect class="cls-2" x="677.25" y="626.25" width="83.63" height="191.17"/></g><g class="cls-28"><rect class="cls-29" x="691.6" y="662.11" width="54.92" height="119.44"/></g><path class="cls-30" d="M750.65,415a68.64,68.64,0,0,0-57.79,86.07H811.08C802.77,483.77,782.72,447.32,750.65,415Z"/><g class="cls-31"><rect class="cls-29" x="820.82" y="662.11" width="54.92" height="119.44"/></g><rect class="cls-4" x="645.92" y="471.85" width="68.61" height="43.03" rx="3.93"/><g class="cls-32"><rect class="cls-4" x="632.82" y="458.75" width="94.81" height="69.24"/></g><g class="cls-33"><rect class="cls-4" x="690.88" y="458.75" width="36.76" height="68.39"/></g><g class="cls-34"><rect class="cls-29" x="368.55" y="665.91" width="141.07" height="83.58"/></g><circle class="cls-6" cx="297.08" cy="611.7" r="36.09"/><circle class="cls-6" cx="560.47" cy="611.7" r="36.09"/><path class="cls-35" d="M348.36,500.56c6.23,9.76,8.65,24.18,14.58,39.28a216.29,216.29,0,0,1,11.71,41.71l3.23,8.64c0,24.23,27.68,43.86,61.83,43.86s61.84-19.63,61.84-43.86l-2.4,12.12s10.84-25.76,44.09-51.54c34.6-26.43,65-41.41,92.78-50.21Z"/><rect class="cls-36" x="710.25" y="559.03" width="74.03" height="20.05" rx="10.02" transform="translate(1494.53 1138.12) rotate(-180)"/><circle class="cls-6" cx="664.98" cy="390.67" r="24.33"/><circle class="cls-36" cx="809.91" cy="569.06" r="10.77"/><path class="cls-30" d="M297.4,647.79a36.08,36.08,0,0,0,36.07-35.3,36.09,36.09,0,0,0-65,20.86A36,36,0,0,0,297.4,647.79Z"/><path class="cls-30" d="M559.87,645.8a36.09,36.09,0,0,0,36.07-35.31A36.08,36.08,0,0,0,531,631.35,36,36,0,0,0,559.87,645.8Z"/><path class="cls-25" d="M348.36,500.56c40.47-96,88.26-148.4,178.91-145.4C610.92,355.16,636,405,636,500.56"/><path class="cls-30" d="M634.71,471.1a137.71,137.71,0,0,0-214.84,30.46H635.71Q635.71,485.47,634.71,471.1Z"/></g></svg>